<svg width="1109" height="1030" viewBox="0 0 1109 1030" fill="none" xmlns="http://www.w3.org/2000/svg">
<path d="M392.267 1.90021C375.6 6.43353 349.6 24.9669 335.333 42.3002C331.333 47.3669 330.667 49.1002 330.667 55.1002C330.667 60.3002 331.333 62.7002 333.2 64.4335C338.8 69.5002 340.8 117.5 338.667 193.9C337.6 232.7 336.8 245.767 335.2 249.9C333.733 254.034 333.333 260.034 333.733 276.3C334 287.9 333.733 297.634 333.2 297.9C332.8 298.3 330.533 297.634 328.133 296.434C325.2 294.967 320 294.434 309.333 294.434C293.067 294.434 288.8 295.634 284.8 301.9C282.133 305.9 282 305.9 270.133 306.034C260.8 306.034 256.533 306.7 251.733 308.967C244.4 312.167 237.867 320.434 236.533 327.767C236.133 330.434 234.933 335.5 233.867 339.1C228.933 356.567 233.2 392.3 241.867 406.834C249.467 419.5 248.667 419.367 294.267 420.434C316.133 420.967 337.867 421.9 342.667 422.434C356.267 423.9 312.8 425.634 278.8 424.967L251.067 424.434L244.533 420.167L238.133 415.767L153.6 416.167C71.6 416.567 69.0666 416.7 67.2 419.1C65.6 421.367 65.3333 446.834 65.6 594.3C66 754.7 66.1333 767.1 68.2666 768.3C70.6666 769.9 74.8 769.367 106 763.9C114.8 762.434 127.067 760.3 133.333 759.367C144.533 757.5 152 756.167 172.667 752.434C186.667 749.9 204.267 746.967 219.867 744.567C226.8 743.5 233.2 741.9 234.133 741.1C236.667 738.967 236.667 726.034 234 723.9C232.933 723.1 231.6 722.567 231.067 722.967C230.533 723.367 224 724.3 216.667 725.1C181.867 729.1 124 739.634 96.6666 747.234C85.7333 750.3 81.6 750.834 80.8 749.367C80.2666 748.7 80 678.034 80 592.434C80 477.1 80.4 436.3 81.6 434.967C82.8 433.367 109.467 433.1 252.533 433.367C407.333 433.634 422.4 433.5 427.2 431.367C436.8 427.367 451.067 428.834 493.333 438.434C507.733 441.767 512.4 443.5 511.733 445.634C511.067 447.5 503.733 448.034 447.333 451.1C407.867 453.234 370.667 457.1 370.667 459.1C370.667 459.634 372 459.767 373.733 459.234C375.333 458.7 402.533 457.767 434 457.234C465.6 456.567 504.267 455.5 520 454.7C535.733 454.034 562.8 452.967 580 452.567C597.2 452.167 634.8 450.967 663.333 449.9C692 448.834 739.067 447.234 768 446.434C826.267 444.834 840.267 443.9 840.933 441.767C841.6 439.767 836.267 438.834 816 437.1C798.267 435.634 794.667 434.167 797.733 430.034C798.933 428.434 801.467 427.634 806.267 427.5C811.467 427.234 814 426.434 816.533 424.034C818.4 422.167 820 420.034 820 419.234C820 418.3 821.067 416.167 822.533 414.434C823.867 412.7 825.467 409.234 826 406.834C826.933 402.034 830 400.034 832.4 402.434C833.467 403.5 845.2 403.9 871.333 403.9H908.8L912.267 400.167C914.133 398.167 923.467 386.034 932.933 373.234C942.4 360.434 959.6 337.234 971.067 321.9C982.533 306.434 997.2 286.7 1003.73 277.9C1010.27 269.1 1020.93 254.834 1027.47 246.034C1034 237.367 1041.2 227.767 1043.33 224.7C1045.6 221.634 1050 215.5 1053.2 211.1C1056.53 206.834 1062.4 198.967 1066.27 193.767C1074 183.5 1074.53 181.634 1070.93 177.234C1068.67 174.434 1068.27 174.434 1054.67 175.767C1046.93 176.567 1036.67 177.5 1031.87 177.9C1021.87 178.834 1019.47 180.7 1009.87 194.7C1002.8 204.834 983.733 231.767 966.133 256.3C948.533 280.834 943.867 287.367 936.267 298.567C930.267 307.367 929.467 308.3 920 320.834C917.067 324.7 914.667 328.434 914.667 329.234C914.667 329.9 913.733 330.567 912.667 330.567C910.267 330.567 910.133 328.7 912.4 326.3C913.333 325.367 914.8 323.1 915.6 321.234C916.533 319.367 919.2 314.567 921.6 310.3C924 306.167 929.2 297.234 933.2 290.3C937.2 283.5 940.933 277.634 941.467 277.234C942 276.834 944.267 272.967 946.533 268.567C948.933 264.167 952 258.7 953.333 256.567C954.8 254.3 956.4 251.634 956.8 250.567C957.333 249.5 958.533 247.634 959.333 246.567C960.267 245.5 962.667 241.234 964.8 237.234C966.933 233.234 969.333 229.1 970.267 228.167C971.2 227.234 972 225.9 972 225.234C972 224.7 974.133 220.967 976.667 217.1C981.467 209.767 982.267 207.234 980.133 206.034C979.467 205.5 972.133 206.167 963.733 207.234C955.467 208.434 942.933 209.9 936 210.7C916.4 212.7 918.133 211.367 898.267 240.567C893.2 247.9 887.2 256.567 884.933 259.9C882.533 263.234 875.2 273.634 868.667 283.234C862.133 292.7 856.267 301.1 855.6 301.9C854.933 302.567 852.8 305.634 850.933 308.7C848.933 311.767 845.6 316.7 843.467 319.767L839.467 325.5V347.634C839.333 363.634 838.8 370.834 837.6 372.967C836.533 374.7 835.6 375.9 835.333 375.634C835.067 375.367 834.133 362.834 833.467 347.9C830.533 290.834 829.333 278.7 825.2 269.5C822.933 264.434 818.4 257.9 814 253.367L806.667 245.634V233.1C806.667 226.167 806 218.434 805.2 215.9C804.4 213.367 803.333 202.167 802.8 191.234C802.133 175.5 801.467 170.567 799.6 167.9C798.4 166.167 797.333 163.634 797.333 162.567C797.333 158.167 788.133 151.767 768 142.167C704.267 111.634 703.733 111.367 670.8 112.034L647.333 112.567L646.667 106.967C645.6 99.7669 638.267 90.3002 620 72.8336C602.8 56.4335 587.2 46.1669 553.067 29.1002C544.533 24.7002 536.667 21.2336 535.733 21.2336C534.667 21.2336 533.333 20.7002 532.667 20.0336C528.267 15.7669 485.733 4.7002 462.667 1.90021C442.667 -0.633118 401.867 -0.633118 392.267 1.90021ZM432.667 25.1002C437.867 27.5002 449.333 38.5669 449.333 41.2336C449.333 43.9002 446.133 46.1669 421.2 60.5669C413.6 64.9669 406.133 69.2336 404.667 70.1669C403.2 71.1002 400.533 72.5669 398.667 73.5002C396.8 74.3002 394.267 75.9002 392.933 77.1002C391.733 78.1669 390.267 78.5669 389.733 78.0336C388.8 77.2336 397.067 69.3669 398.933 69.2336C399.467 69.2336 402.667 67.2336 406 64.7002C409.2 62.1669 415.467 57.7669 419.867 54.9669C428.267 49.6335 429.6 47.3669 425.733 44.3002C422.133 41.5002 409.333 35.9002 406.533 35.9002C402.8 35.9002 393.467 39.9002 385.333 44.9669C374.933 51.6335 356 65.1002 351.733 68.9669C348 72.4335 344 72.1669 344 68.5669C344 66.0336 348.133 62.4335 364 50.9669C382.933 37.3669 398.133 27.9002 405.867 25.1002C414.667 21.9002 425.867 21.9002 432.667 25.1002ZM502.133 25.2336C509.6 26.7002 517.067 28.4335 518.8 29.1002C520.533 29.7669 526.267 31.6335 531.333 33.2336C540.533 36.1669 568.267 48.9669 574.667 53.3669C576.533 54.5669 581.6 57.9002 586 60.7002C593.867 65.7669 596 67.5002 607.867 78.1669C615.6 85.1002 614.267 87.5002 604.933 83.7669C590 77.7669 526.4 56.4335 520 55.2336C504 52.3002 502.267 51.2336 494.267 40.0336C490 34.3002 485.733 28.7002 484.667 27.9002C481.733 25.5002 482.267 22.5669 485.733 22.5669C487.333 22.5669 494.8 23.7669 502.133 25.2336ZM485.067 53.3669C488.533 54.1669 512.667 61.7669 538.667 70.1669C640.133 103.1 638.667 102.567 636.933 106.967C636.4 108.567 634.8 108.834 630.8 108.3C626.133 107.634 625.333 107.9 625.333 110.034C625.333 114.834 627.733 116.167 640.8 118.567C660.667 122.167 678.667 130.167 678.667 135.367C678.667 137.9 677.2 137.767 668.267 134.034C649.2 126.034 639.2 125.1 612.8 128.434C595.2 130.7 578.8 132.7 556 135.234C541.6 136.967 520.8 139.234 498.4 141.9C491.467 142.7 488.533 140.834 487.333 134.834C486.933 132.834 486 128.834 485.333 125.9C484.533 122.967 483.333 117.234 482.533 113.234C481.733 109.234 480.267 104.034 479.2 101.634C478.133 99.3669 477.333 95.3669 477.333 92.5669C477.333 89.9002 476.533 86.1669 475.467 84.1669C474.4 82.1669 473.2 77.7669 472.667 74.4335C471.2 64.7002 470.4 64.1669 463.733 67.9002C458.8 70.5669 450 76.0336 436 85.1002C434.133 86.1669 431.2 88.0336 429.333 89.1002C420.667 93.9002 418.8 95.1002 411.333 99.9002C406.933 102.834 402 105.767 400.267 106.567C398.533 107.367 396.267 108.834 395.2 109.9C394 110.967 392 111.9 390.533 111.9C389.2 111.9 388 112.834 388 113.9C388 115.1 386.8 115.9 384.667 115.9C382.8 115.9 380.8 116.967 380 118.567C379.2 120.034 377.6 121.234 376.533 121.234C375.333 121.234 372.8 122.434 370.933 124.034C368.4 126.034 367.2 126.3 366.8 125.1C366.533 124.167 367.067 123.1 368 122.834C368.933 122.434 370.8 121.1 372.133 119.767C373.6 118.3 375.867 117.234 377.333 117.234C378.8 117.234 380 116.3 380 115.234C380 114.034 381.6 112.567 383.6 111.767C385.6 110.967 387.6 110.034 388 109.5C388.4 108.967 392.4 106.034 397.067 102.834C451.6 65.7669 472.667 52.4335 477.733 52.0336C478.4 51.9002 481.6 52.5669 485.067 53.3669ZM468.8 86.5669C470.4 92.8336 472.4 100.567 473.333 103.9C474.133 107.234 475.333 112.834 476 116.567C476.533 120.167 478 125.5 479.2 128.167C481.333 133.234 482 144.834 480.267 147.367C479.067 149.1 473.867 152.034 462.667 156.967C457.867 159.234 450 162.834 445.067 165.1C440.133 167.367 435.867 169.234 435.467 169.234C435.067 169.234 428.4 172.167 420.667 175.9C412.933 179.5 406.267 182.567 406 182.567C405.867 182.567 400.267 184.967 393.733 188.034C387.333 190.967 378.133 195.234 373.333 197.367C368.533 199.634 362.933 202.167 360.933 203.234C356.8 205.367 353.333 205.767 353.333 204.167C353.467 203.634 362.133 197.5 372.933 190.567C383.6 183.634 394.133 176.434 396.133 174.834L400 171.634V147.1C400 127.767 399.6 122.3 398.267 121.767C397.2 121.367 393.2 122.3 389.333 123.9C384.8 125.634 381.733 126.167 380.933 125.367C379.2 123.634 380.933 121.234 384.133 121.234C385.6 121.234 387.067 120.434 387.467 119.367C387.867 118.3 389.867 116.834 391.733 116.034C393.733 115.234 396.933 113.5 398.933 112.167C400.933 110.967 408 106.567 414.667 102.567C421.467 98.5669 428.533 94.1669 430.533 92.8336C432.4 91.6335 435.467 89.7669 437.333 88.8336C439.2 87.9002 443.333 85.3669 446.667 83.2336C464.267 71.7669 465.067 71.9002 468.8 86.5669ZM702.267 127.9C706.533 129.367 711.867 131.234 714 132.034C716.267 132.834 720.667 134.3 724 135.234C731.2 137.367 760 148.3 776.667 155.234C784.933 158.567 790 161.634 793.067 164.967C797.333 169.634 797.333 169.9 797.333 183.1C797.333 190.567 798 198.967 798.8 201.9C799.6 204.834 800.667 217.767 801.333 230.567C801.867 243.367 803.333 258.7 804.533 264.567C806 271.767 806.667 280.167 806.4 290.567C805.867 310.834 808.267 309.634 769.333 308.7C730.533 307.634 691.6 305.367 690.133 303.9C687.867 301.634 695.6 301.367 745.733 301.634L797.6 301.9L800.133 298.7C802.933 295.234 802.667 289.9 799.067 277.234C795.733 265.5 792.133 258.7 788.133 256.567C785.2 255.1 776.267 254.567 746.667 254.3L709.067 253.9L702.933 260.7C699.467 264.3 695.733 269.1 694.667 271.367C692 276.7 689.2 279.9 687.067 279.9C685.6 279.9 685.333 266.567 685.333 203.5C685.333 161.367 685.733 126.567 686.267 126.167C687.867 124.434 694.533 125.234 702.267 127.9ZM364 127.9C364 128.567 363.067 129.234 361.867 129.234C360.8 129.234 360.267 128.567 360.667 127.9C361.067 127.1 362 126.567 362.8 126.567C363.467 126.567 364 127.1 364 127.9ZM618.133 181.5C623.333 183.234 630.267 186.3 633.467 188.167C640.133 192.034 656.933 208.7 662.267 216.567C664.267 219.5 667.733 224.3 670.267 227.367C674.533 232.7 674.667 233.234 674.667 244.7C674.8 251.234 675.6 260.167 676.667 264.567C679.067 274.567 679.067 275.9 676.8 275.9C675.733 275.9 674.533 275.1 674.133 274.167C672.8 271.5 663.6 255.234 658.4 246.167C652.133 235.5 636.533 212.3 632.8 208.167C622.8 196.967 603.467 189.1 582.667 187.367C566.933 186.167 556.533 188.034 514 199.1C503.733 201.9 486 206.434 474.667 209.367C463.333 212.434 450.667 215.634 446.667 216.7C442.667 217.9 435.733 219.5 431.333 220.434C426.933 221.367 422 222.834 420.4 223.634C418.8 224.567 415.467 225.234 413.067 225.234C410.667 225.234 406.933 226.167 404.8 227.234C400.667 229.367 392 229.9 392 228.034C392 226.3 395.467 225.234 400.667 225.234C403.067 225.234 405.733 224.434 406.533 223.367C407.467 222.3 410.133 220.967 412.4 220.567C417.467 219.5 432.667 214.834 437.333 212.967C439.2 212.167 442.8 211.1 445.333 210.434C447.867 209.9 464.667 204.834 482.667 199.234C500.667 193.634 517.6 188.434 520.533 187.767C523.333 187.1 526.667 185.9 528 185.234C530.133 184.167 542.533 181.1 556.667 178.434C559.6 177.9 572.533 177.634 585.333 177.767C606.133 178.167 609.733 178.567 618.133 181.5ZM590.933 206.034C612 208.3 632.533 221.634 645.867 242.034C648.8 246.3 652.267 251.5 653.6 253.5C654.933 255.5 656 258.034 656 258.967C656 260.034 656.8 261.634 657.867 262.434C658.933 263.367 660.133 266.034 660.533 268.567C661.067 271.1 662.267 274.834 663.333 276.834C664.4 278.834 665.333 282.034 665.333 283.9C665.333 285.767 666.533 290.567 667.867 294.567C669.333 298.7 670.667 304.967 670.933 308.567L671.333 315.234L658.667 314.834C651.733 314.567 633.733 313.634 618.667 312.567C603.6 311.5 587.333 310.3 582.4 310.034C572 309.5 570.533 308.7 566.8 300.434C562.933 292.167 553.467 283.1 546.8 281.1C533.333 277.1 519.867 288.434 511.333 311.234C507.333 321.5 504.533 321.9 505.067 312.034C505.333 308.167 506.267 303.234 507.333 301.1C508.4 299.1 509.333 295.767 509.333 293.9C509.333 292.034 510.533 288.167 512 285.234C513.467 282.3 514.667 278.834 514.667 277.5C514.667 276.034 515.6 274.167 516.667 273.234C517.733 272.3 518.667 270.834 518.667 269.9C518.667 268.967 519.867 266.7 521.333 264.834C526.8 257.9 524.4 255.5 509.867 253.367C474.267 247.767 429.2 248.434 373.2 255.367C355.333 257.5 352 257.634 352 256.034C352 254.434 362.267 250.834 384 244.7C388 243.634 397.333 240.967 404.667 238.834C431.067 231.234 473.467 220.7 502 214.567C546 205.1 565.467 203.234 590.933 206.034ZM383.067 232.834C382.133 233.1 380.533 233.1 379.733 232.834C378.8 232.434 379.467 232.167 381.333 232.167C383.2 232.167 383.867 232.434 383.067 232.834ZM490.4 297.1C492.4 298.3 491.6 305.634 488.667 313.234C487.6 315.767 486.533 320.7 486 324.034C485.6 327.634 484.133 331.234 482.667 332.567C480.267 334.7 480.133 334.567 479.333 328.567C478.8 325.234 478.667 319.5 478.933 315.767C479.467 311.1 479.067 308.834 477.733 307.634C476.267 306.434 466.667 306.7 436.267 308.434C395.733 310.834 369.333 311.1 369.333 309.234C369.333 307.767 374.533 306.834 388.667 305.9C395.333 305.5 409.067 304.3 419.333 303.234C429.6 302.167 448.8 300.3 462 299.1C475.2 297.9 486.267 296.7 486.533 296.434C487.333 295.634 488.4 295.767 490.4 297.1ZM278.4 316.7C277.867 319.9 275.2 320.567 274.133 317.767C273.067 315.1 275.867 311.234 277.733 313.1C278.4 313.767 278.667 315.367 278.4 316.7ZM603.333 318.567C614.4 319.367 633.067 320.967 644.8 322.034C656.667 323.1 669.6 323.9 673.467 323.9C677.467 323.9 681.333 324.434 682.133 324.967C682.933 325.5 684.133 328.434 684.667 331.5C686.4 341.9 683.467 341.5 745.2 340.434L800 339.5L803.867 332.034C807.733 324.3 813.733 319.9 821.2 319.5L824.667 319.234L825.733 335.9C827.067 357.9 825.867 388.434 823.2 393.367C822.267 395.367 821.333 398.167 821.333 399.5C821.333 400.834 820.533 403.5 819.467 405.5C818.4 407.367 816.933 411.1 816.133 413.634C814.667 417.9 814.133 418.3 807.6 418.967C799.333 419.634 797.333 419.1 797.333 415.9C797.333 414.567 796.533 413.234 795.733 412.967C794.8 412.7 764 412.7 727.467 412.967L660.933 413.5L658 416.7C655.2 419.767 654.267 419.9 638.533 419.767C629.467 419.634 615.733 419.234 608 418.7L594 417.9L592.533 413.234C591.733 410.7 590.667 401.367 590.133 392.567C589.733 383.767 588.533 372.3 587.333 367.234C586.267 362.034 585.333 355.367 585.333 352.167C585.333 349.1 584.133 343.1 582.667 338.967C581.2 334.7 580 330.3 580 328.834C580 327.5 579.067 324.967 577.867 323.234C576.133 320.567 576 319.5 577.333 317.9C578.267 316.7 580 316.167 581.2 316.434C582.4 316.834 592.4 317.767 603.333 318.567ZM299.467 320.167C300 320.967 299.333 322.567 297.867 323.767C296.4 324.967 293.867 328.3 292 331.234C288.8 336.434 288.8 337.234 288.8 362.567C288.8 388.434 288.8 388.567 292.4 394.567C298.933 405.367 299.333 406.434 297.6 408.167C294.8 410.967 288.8 402.967 285.467 392.3C282.667 383.634 282.533 380.834 282.933 359.634C283.333 340.967 283.867 335.767 285.733 332.567C286.933 330.3 288 327.9 288 327.1C288 326.3 289.2 324.034 290.8 322.034C293.6 318.434 297.867 317.5 299.467 320.167ZM548.533 323.767C552.267 327.9 557.333 338.567 557.333 342.434C557.333 344.567 558.267 348.434 559.333 350.967C560.667 354.034 561.333 360.167 561.333 367.634C561.333 374.834 560.533 381.767 559.333 385.234C558.267 388.3 557.333 392.7 557.333 394.834C557.333 398.7 554.267 404.034 548.133 410.834C545.733 413.634 543.6 414.567 540 414.567C535.867 414.567 534.267 413.634 529.6 408.3C526.533 404.967 524 401.634 524 400.967C524 398.834 527.867 399.9 528.533 402.3C529.733 405.9 537.867 409.5 541.6 408.034C548.4 405.367 553.333 395.234 553.333 383.767C553.333 378.967 549.733 381.234 546.667 388.034C542.667 396.434 538.267 399.1 533.067 396.434C530.933 395.367 529.333 393.367 529.333 391.9C529.333 389.767 530 389.367 533.2 390.034C539.067 391.234 542.667 385.367 542.667 374.3C542.667 367.234 542.133 365.5 539.467 362.834C535.333 358.967 532.533 359.1 530 363.1C528.4 365.5 528 367.9 528.667 372.3C529.733 379.367 528.4 386.967 526.267 386.167C525.333 385.9 524.4 383.1 523.867 379.767C523.467 376.567 522.133 371.9 520.8 369.367C518.8 365.767 518.533 363.234 519.333 355.5C519.867 350.3 521.2 344.167 522.133 341.767C523.2 339.367 524 336.034 524 334.434C524 330.567 532.667 320.167 536.4 319.634C540.267 318.967 545.867 320.834 548.533 323.767ZM258.667 322.7C258.667 323.5 256.933 327.367 254.8 331.1C251.6 336.7 250.8 340.034 250 350.967C249.467 358.034 249.467 370.3 250 378.167C250.933 391.9 251.2 392.434 255.733 397.5C259.067 401.234 260 403.1 258.933 404.167C256.8 406.3 253.867 404.567 249.6 398.7C243.867 390.7 242.133 372.434 244.667 345.234C245.6 334.3 247.867 328.167 252.933 323.234C255.2 320.834 258.667 320.567 258.667 322.7ZM909.333 335.9C909.333 336.567 908.8 337.234 908 337.234C907.333 337.234 906.667 336.567 906.667 335.9C906.667 335.1 907.333 334.567 908 334.567C908.8 334.567 909.333 335.1 909.333 335.9ZM337.467 348.167C340.8 355.1 344.933 374.3 345.2 383.634C345.467 392.3 346.8 397.634 349.067 399.1C349.867 399.5 378.8 400.567 413.467 401.367C459.6 402.434 477.867 403.367 480.933 404.567C484.133 405.9 485.6 407.634 486.8 411.9C489.467 420.7 488.933 420.834 462.667 416.567C456.4 415.5 437.867 414.034 421.333 413.234C404.8 412.434 385.333 411.234 378 410.567C370.667 409.9 359.733 409.367 353.6 409.234C337.333 409.234 337.333 409.234 337.333 392.967C337.333 375.9 335.067 356.7 332.4 350.3C330.133 344.834 330.933 340.034 333.733 342.3C334.533 343.1 336.267 345.634 337.467 348.167ZM834.133 395.5C832.933 398.434 830.667 396.167 830.667 392.3C830.667 390.434 831.467 386.434 832.4 383.367L834 377.9L834.4 385.767C834.667 390.034 834.533 394.434 834.133 395.5ZM565.733 415.1C566.133 416.167 565.333 418.034 563.867 419.367C562.533 420.567 561.333 422.7 561.333 423.9C561.333 426.167 556.667 431.1 550.667 434.967C545.867 438.3 532 437.767 532 434.434C532 433.767 535.333 433.234 539.467 433.234C546.667 433.234 547.333 432.967 553.067 427.234C556.267 423.9 559.467 421.234 560 421.234C560.533 421.234 561.333 419.367 561.867 417.234C562.667 412.967 564.533 412.034 565.733 415.1ZM417.733 424.7C421.6 425.234 423.733 426.034 423.2 426.834C422.533 427.767 414.267 428.034 397.467 427.367C367.333 426.3 357.067 425.367 358.133 423.634C358.933 422.3 404.267 423.234 417.733 424.7Z" fill="white"/>
<path d="M480.133 63.7664C478.533 64.8331 478.4 65.6331 479.733 68.5664C480.667 70.4331 481.333 73.6331 481.333 75.6331C481.467 77.6331 482.267 80.6998 483.333 82.5664C484.4 84.4331 485.2 87.0998 485.333 88.5664C485.333 91.2331 489.333 105.5 492.667 114.566C493.6 117.1 495.067 121.766 495.867 124.833C497.467 130.833 501.867 134.566 504.4 132.033C505.333 131.1 504.8 128.3 502.933 122.833C501.333 118.566 500 113.766 500 112.3C500 110.966 499.067 108.566 498 107.1C496.933 105.766 496 103.366 496 101.9C496 100.433 494.8 96.9664 493.333 94.1664C491.6 90.9664 490.933 88.0331 491.467 86.1664C492.267 83.4998 492.4 83.4998 494.133 85.8998C495.2 87.2331 496 89.7664 496 91.3664C496 93.0998 496.533 94.6998 497.2 95.2331C497.867 95.6331 499.2 98.1664 500 100.966C500.8 103.633 502.4 107.633 503.333 109.9C504.267 112.033 506.8 117.633 508.8 122.166C512.4 130.033 514.8 132.3 516.667 129.233C517.467 127.9 515.2 120.166 511.2 111.233C507.067 101.633 505.6 98.0331 502.667 90.5664C501.067 86.5664 498.933 81.3664 497.733 79.0998C495.2 74.1664 496.267 69.8998 499.733 71.2331C500.933 71.7664 508.267 73.8998 516 76.0331C523.733 78.2998 531.2 80.5664 532.667 81.2331C535.467 82.5664 547.867 85.8998 556.667 87.8998C559.6 88.5664 563.867 90.0331 566 91.0998C568.267 92.2998 571.467 93.2331 573.333 93.2331C575.2 93.3664 578.133 94.1664 580 95.2331C581.867 96.2998 585.2 97.0998 587.333 97.2331C589.6 97.2331 592.933 98.0331 594.8 99.0998C596.667 100.033 600.533 101.233 603.467 101.766C608.267 102.566 608.533 102.433 606.133 100.566C604.667 99.4998 602.267 98.5664 600.667 98.5664C599.2 98.5664 595.733 97.3664 592.933 95.8998C590.267 94.4331 586.8 93.2331 585.333 93.2331C583.733 93.2331 580.667 92.1664 578.267 90.9664C575.867 89.7664 571.867 88.2998 569.333 87.7664C566.8 87.0998 553.333 82.8331 539.333 78.1664C490.933 61.8997 485.333 60.4331 480.133 63.7664ZM490.667 78.8331C490.667 79.4998 489.733 79.8998 488.667 79.8998C486.667 79.8998 486 77.0998 487.6 75.4998C488.533 74.5664 490.667 76.9664 490.667 78.8331Z" fill="white"/>
<path d="M613.067 104.833C613.867 105.1 615.467 105.1 616.4 104.833C617.2 104.433 616.533 104.167 614.667 104.167C612.8 104.167 612.133 104.433 613.067 104.833Z" fill="white"/>
<path d="M580.667 118.567C578.667 119.367 579.867 119.767 585.067 119.767C589.467 119.9 591.867 119.367 591.334 118.567C590.4 116.967 584.4 116.967 580.667 118.567Z" fill="white"/>
<path d="M706.666 148.3C704.8 149.233 703.2 150.833 703.066 151.9C702.266 156.167 704.8 157.233 716.8 157.767C723.333 158.167 734.666 159.9 742 161.633C763.866 167.1 779.466 171.5 782.4 173.1C786.4 175.233 788 174.967 788 172.167C788 167.767 783.866 165.767 760.666 158.167C724.266 146.3 714.266 144.433 706.666 148.3Z" fill="white"/>
<path d="M709.733 168.833C704.4 169.5 702.267 172.033 703.467 176.567C704.267 179.9 704.667 180.033 710.533 179.233C717.333 178.3 726.8 179.9 778.4 190.833C782.8 191.767 786 193.233 786.8 194.7C787.467 196.167 788.933 197.233 790 197.233C793.067 197.233 792.533 188.967 789.333 184.833C785.867 180.567 777.067 177.9 748 172.433C741.733 171.233 734 169.767 730.667 169.233C724.533 168.033 717.2 167.9 709.733 168.833Z" fill="white"/>
<path d="M711.6 191.9C705.467 192.967 702.267 195.9 703.467 198.967C704.133 200.834 706.267 201.234 716 201.234C728.4 201.234 777.467 206.967 783.067 209.1C784.933 209.767 786.8 211.1 787.333 211.767C788.933 214.434 792 213.367 792 210.167C791.867 206.434 788 201.634 783.6 200.034C775.867 197.1 728.8 190.167 719.467 190.7C718 190.834 714.4 191.367 711.6 191.9Z" fill="white"/>
<path d="M711.733 211.767C706.933 212.7 702.667 215.233 702.667 217.1C702.667 217.633 703.467 218.967 704.4 220.167C705.733 221.9 707.2 222.167 712.667 221.233C717.333 220.433 724.667 220.833 737.333 222.567C747.2 223.9 761.6 225.767 769.333 226.7C777.067 227.633 785.067 229.233 787.2 230.167C790.4 231.767 791.2 231.9 792.133 230.3C793.6 228.033 793.6 226.967 792 223.767C788.933 218.3 784.533 217.233 739.333 211.9C727.333 210.433 718.933 210.433 711.733 211.767Z" fill="white"/>
<path d="M718 233.5C704 235.233 701.467 236.7 703.6 242.033C704.267 243.9 706 244.167 715.2 243.5C726.934 242.567 768.267 244.567 780 246.7C792.133 248.833 792.667 248.833 793.067 245.767C793.333 243.9 792 241.767 789.467 239.5C785.867 236.433 784 236.033 768.4 235.233C759.067 234.7 745.6 233.9 738.667 233.367C731.734 232.967 722.4 232.967 718 233.5Z" fill="white"/>
<path d="M581.067 239.366C579.6 240.833 579.734 252.966 581.2 253.9C581.867 254.3 583.2 258.033 584 262.3C585.867 270.966 589.734 280.7 592.934 284.3C597.867 289.633 602.4 290.433 630 290.833C661.467 291.366 660.4 292.033 652.267 275.366C649.334 269.5 646.534 263.633 646.134 262.566C643.6 256.166 635.734 244.166 632.667 241.9C629.467 239.5 626.667 239.233 605.6 238.833C592.667 238.566 581.6 238.833 581.067 239.366ZM609.6 245.233H626.934L631.467 250.166C636.134 255.233 638.267 263.366 634 259.9C632.934 258.966 632 257.5 631.867 256.7C631.867 255.9 630.134 253.9 628 252.166C624.4 249.366 623.067 249.233 609.067 249.5L594 249.9L594.267 254.566C594.534 257.1 595.734 261.9 597.2 265.233C603.467 280.3 604.267 282.433 603.467 283.766C602.934 284.566 602.134 285.233 601.6 285.233C599.467 285.233 593.334 272.7 590.534 262.566C589.867 260.033 588.267 255.633 587.067 252.966C585.334 248.833 585.2 247.633 586.667 245.9C587.6 244.7 589.334 244.166 590.267 244.566C591.334 244.966 600 245.233 609.6 245.233ZM640 266.033C640 267.1 639.467 267.633 638.667 267.233C638 266.833 637.334 265.5 637.334 264.433C637.334 263.366 638 262.833 638.667 263.233C639.467 263.633 640 264.966 640 266.033Z" fill="white"/>
<path d="M807.467 335.367C807.067 336.567 806.667 343.234 806.667 350.3C806.533 359.367 806 364.034 804.667 365.767C803.6 367.1 802.4 371.767 801.867 376.167C801.333 380.7 799.867 385.367 798.4 387.234L795.867 390.567H733.2C692.533 390.567 669.6 390.034 667.867 389.234C666.533 388.434 665.333 386.967 665.333 385.767C665.333 383.767 651.467 354.7 646.933 347.367C645.6 345.234 643.867 343.234 642.933 342.834C640.4 342.034 641.067 345.9 644 349.634C645.467 351.5 646.667 354.3 646.667 355.767C646.667 357.367 647.467 360.034 648.533 361.634C649.6 363.234 650.8 366.967 651.333 369.9C651.867 372.7 653.067 376.834 654.133 378.834C655.2 380.834 656 384.434 656 386.967C656 392.434 660.8 403.9 663.067 403.9C691.333 404.567 796.933 403.5 798.667 402.567C800.133 401.767 801.467 398.967 802 395.634C802.533 392.434 803.733 388.567 804.8 386.967C805.867 385.367 806.667 381.234 806.667 378.034C806.667 374.7 807.867 368.967 809.333 365.234C812.933 356.034 812.933 333.234 809.333 333.234C808.8 333.234 807.867 334.167 807.467 335.367Z" fill="white"/>
<path d="M677.867 361.9C677.334 363.233 678 365.1 679.6 366.7C682.134 369.233 683.467 369.233 738.8 367.9C769.867 367.1 796.4 366.166 797.734 365.766C800.4 364.966 800.8 361.766 798.4 360.966C797.467 360.566 770.134 360.166 737.6 360.033C683.734 359.766 678.534 359.9 677.867 361.9Z" fill="white"/>
<path d="M536.8 339.767C536.4 340.434 536.933 341.634 537.867 342.434C540 344.167 542.133 342.167 540.667 339.901C539.6 338.301 537.733 338.167 536.8 339.767Z" fill="white"/>
<path d="M532.4 348.834C529.733 349.767 530.4 351.9 533.333 351.9C534.8 351.9 536 351.367 536 350.7C536 348.967 534.4 348.167 532.4 348.834Z" fill="white"/>
<path d="M542.267 351.633C539.333 354.833 539.467 356.833 542.533 357.633C544.4 358.033 545.333 357.367 545.867 355.367C547.6 348.967 546.133 347.367 542.267 351.633Z" fill="white"/>
<path d="M553.333 359.366C553.333 360.433 554 360.966 554.667 360.566C555.467 360.166 556 359.233 556 358.433C556 357.766 555.467 357.233 554.667 357.233C554 357.233 553.333 358.166 553.333 359.366Z" fill="white"/>
<path d="M49.3334 175.367C49.3334 177.9 54.2667 185.234 69.3334 204.7C75.6 212.967 82.8 222.567 85.4667 226.034C88 229.634 104.533 251.767 122.133 275.234C139.733 298.7 155.333 319.5 156.667 321.367C179.067 351.5 215.2 398.567 217.733 400.967C220.133 403.234 222.267 404.034 225.467 403.634C229.467 403.234 230 402.7 230.4 398.967C230.667 396.567 229.867 393.367 228.8 391.634C227.2 389.234 226.4 382.3 225.6 364.167C224.533 340.167 224.533 339.634 227.467 333.5C229.2 330.034 230.667 326.3 230.667 325.234C230.667 321.9 237.333 310.3 241.733 305.634C246.133 300.967 255.2 297.234 262.133 297.234C264.533 297.234 266.933 296.567 267.467 295.767C267.867 294.967 265.067 289.767 261.2 284.167C254.267 274.034 239.2 251.9 223.467 228.7C219.067 222.167 213.6 215.767 211.467 214.434C209.333 213.1 203.6 211.767 198.8 211.367C188.533 210.434 155.067 206.567 151.6 205.9C148.933 205.367 147.2 208.3 148.533 210.834C148.933 211.767 150.533 214.3 151.867 216.567C153.333 218.7 156 223.234 157.733 226.567C159.6 229.9 163.2 235.9 165.867 239.9C168.533 243.9 170.667 247.767 170.667 248.434C170.667 249.1 171.467 250.7 172.533 251.767C173.6 252.967 176.133 256.967 178.133 260.7C181.6 266.834 191.733 283.9 199.6 297.1C201.2 299.767 202.933 302.834 203.6 303.9C204.133 304.967 206.133 308.3 208.267 311.367C210.267 314.3 212.533 318.3 213.333 320.034C215.467 324.7 218.133 329.234 219.867 330.967C221.733 332.834 221.733 335.9 220 335.9C219.2 335.9 218.267 334.834 217.733 333.5C217.333 332.3 216.133 330.3 215.067 329.234C211.6 325.367 203.2 313.767 197.067 304.567C193.6 299.367 188.267 291.634 185.067 287.1C174.133 271.634 158 248.967 156 246.034C154.933 244.567 149.867 237.234 144.667 229.9C135.067 216.567 126.667 204.434 116.933 190.3C114 186.167 110.4 181.767 108.8 180.834C107.2 179.767 100.8 178.434 94.6667 177.9C88.4 177.5 75.8667 176.167 66.6667 175.1C57.4667 174.034 49.8667 173.234 49.7334 173.234C49.4667 173.234 49.3334 174.167 49.3334 175.367Z" fill="white"/>
<path d="M1.73333 235.5C0.8 235.766 0 236.833 0 237.633C0 238.566 6 247.9 13.2 258.566C20.5333 269.233 31.7333 285.633 38.2667 294.966C44.6667 304.433 50.9333 313.5 52 315.233C58 324.166 76.1333 350.833 80.6667 357.233C83.6 361.233 90.1333 370.966 95.4667 378.833C100.667 386.566 106.667 395.1 108.667 397.766L112.267 402.566H129.6C143.6 402.566 146.933 402.166 147.467 400.566C148 399.366 144.667 393.366 139.333 385.5C125.333 365.1 101.733 331.233 90 314.566C87.2 310.566 80.4 300.566 74.8 292.566C69.3333 284.433 64.2667 277.5 63.6 277.1C62.8 276.566 62.6667 275.233 63.0667 274.033C63.8667 272.166 66.9333 271.9 85.2 271.9C96.9333 271.9 106.8 271.366 107.2 270.7C107.867 269.633 89.4667 243.5 83.4667 236.833C81.4667 234.833 77.8667 234.566 42.4 234.7C20.9333 234.7 2.53333 235.1 1.73333 235.5Z" fill="white"/>
<path d="M240.533 236.567C239.6 238.967 239.2 238.3 249.067 253.367L257.333 266.167L269.467 267.1C276.267 267.633 286.533 268.833 292.533 269.9C307.733 272.7 324.8 272.567 325.867 269.767C326.267 268.567 326.667 262.033 326.667 255.1C326.667 248.033 327.333 241.1 328.133 239.633C329.333 237.5 329.2 236.567 327.867 235.767C326.8 235.1 306.933 234.567 283.6 234.567C247.6 234.567 241.2 234.833 240.533 236.567Z" fill="white"/>
<path d="M816.4 235.5C813.333 236.7 814.667 241.633 819.867 248.433C822.8 252.166 826.667 258.166 828.533 261.766C832.667 269.633 834.667 272.033 836 271.233C836.667 270.833 867.733 266.566 870.267 266.566C870.533 266.566 871.333 265.1 872 263.366C872.667 261.633 877.2 254.966 882 248.7C886.8 242.433 890.4 236.7 890 235.9C889.2 234.566 819.6 234.166 816.4 235.5Z" fill="white"/>
<path d="M1047.73 235.9C1046.53 236.7 1041.07 243.1 1035.73 250.3C1030.4 257.366 1025.33 264.033 1024.27 265.1C1023.33 266.033 1022.67 267.9 1022.93 269.1C1023.33 270.966 1026.13 271.233 1044.27 271.633C1060.4 271.9 1065.2 272.433 1065.73 273.766C1066.4 275.366 1063.73 279.9 1059.07 285.9C1058.4 286.566 1055.73 290.566 1053.07 294.566C1050.4 298.566 1045.33 305.766 1042 310.566C1038.67 315.366 1031.33 325.766 1025.87 333.9C1020.27 341.9 1012.8 352.7 1009.2 357.9C1005.47 362.966 1000.4 370.166 998 373.9C995.467 377.5 990.667 384.566 987.333 389.633C983.733 394.7 981.333 399.5 981.867 400.566C982.4 402.166 985.867 402.566 999.867 402.566H1017.07L1023.73 393.5C1027.33 388.566 1033.73 379.5 1038 373.233C1042.27 366.966 1048.53 358.033 1051.87 353.233C1062.27 338.166 1067.07 331.233 1077.6 315.766C1083.33 307.366 1090.93 296.3 1094.53 291.233C1098.27 286.033 1102.8 279.366 1104.67 276.166L1108.13 270.433L1103.33 255.5C1095.73 232.7 1098.53 234.566 1072.27 234.566C1060 234.566 1048.93 235.233 1047.73 235.9Z" fill="white"/>
<path d="M274.667 279.5C274.667 281.9 279.867 293.233 280.933 293.233C281.333 293.233 283.467 291.9 285.6 290.3C288.267 288.433 293.333 286.967 300.133 286.033C311.333 284.567 313.467 283.1 306.4 281.9C298.933 280.7 276 277.233 275.333 277.233C274.933 277.233 274.667 278.3 274.667 279.5Z" fill="white"/>
<path d="M841.333 279.767L836.667 280.567L836.267 294.833C836 305.9 836.267 309.233 837.6 309.233C839.6 309.233 841.2 306.833 847.6 295.233C857.067 277.9 856.667 276.967 841.333 279.767Z" fill="white"/>
<path d="M826.133 420.034C824.8 423.5 824.4 426.167 825.067 426.834C825.733 427.5 830.133 429.1 834.8 430.167C842.133 432.034 857.867 432.434 944.667 433.1C1000.4 433.5 1046.8 434.434 1047.73 434.967C1048.93 435.767 1049.33 467.5 1049.33 586.034C1049.33 668.434 1049.87 735.9 1050.4 735.9C1051.6 735.9 1061.73 718.567 1063.87 712.834C1064.93 710.3 1065.33 662.967 1065.33 566.7V424.3L1062.27 419.767L1059.2 415.234L943.733 414.834L828.267 414.567L826.133 420.034Z" fill="white"/>
<path d="M192 477.234C145.6 477.767 138.8 478.167 135.2 480.167C130.667 482.7 124 489.9 124 492.167C124 492.967 123.2 494.7 122.267 495.767C121.2 496.967 119.333 502.434 118 507.9C115.867 516.567 115.6 523.5 115.867 559.234C116.133 608.3 117.733 621.767 124.533 629.9C127.2 632.967 130.4 635.1 133.6 635.767C138.933 636.967 157.6 635.5 173.333 632.7C188.533 629.9 200.4 628.967 202.667 630.434C204.133 631.5 204.8 634.967 205.067 643.5C205.733 658.434 204.4 662.034 197.733 663.767C192.4 665.1 167.467 670.034 160.667 671.1C158.533 671.5 150.8 672.7 143.6 674.034C133.067 675.9 129.333 676.034 124.933 674.967C121.6 674.034 119.067 673.9 118.667 674.7C117.467 676.434 121.067 713.5 122.533 714.967C123.2 715.634 126.4 715.367 130.933 714.167C137.333 712.3 153.067 708.434 185.333 700.967C191.6 699.5 200.533 697.5 205.333 696.567C242.267 689.234 245.733 687.1 254.533 668.567L258.667 659.9V614.167C258.667 571.1 258.533 568.167 256 563.234C254.533 560.3 253.333 557.234 253.333 556.434C253.333 555.5 251.333 553.1 248.8 550.967C242.667 545.5 234.8 544.834 202.8 546.7L176.8 548.3L173.067 544.034C169.733 540.3 169.333 538.834 169.333 530.834C169.333 520.7 172.533 513.767 177.6 512.567C179.333 512.3 194.933 511.367 212.267 510.567C239.733 509.367 244.533 509.367 248.8 511.234C251.467 512.3 254 512.967 254.533 512.7C255.733 511.9 253.733 483.9 252.133 480.434C251.467 478.834 249.467 477.367 247.733 477.1C246 476.834 220.933 476.834 192 477.234Z" fill="#DC2626"/>
<path d="M332.267 478.3C332 479.234 332.667 482.034 334 484.434C336.133 488.434 336.133 488.967 334.133 492.967C332.933 495.234 332 498.034 332 499.234C332 500.3 330.8 503.5 329.333 506.167C327.867 508.967 326.667 512.434 326.667 513.9C326.667 515.5 325.733 517.9 324.667 519.367C323.6 520.7 322.667 523.234 322.667 524.967C322.667 526.567 321.467 530.3 320 533.234C318.533 536.167 317.333 539.634 317.333 540.967C317.333 542.3 316.4 544.567 315.333 546.034C314.267 547.367 313.333 549.767 313.333 551.1C313.333 552.567 312.133 556.167 310.8 559.1C309.333 562.167 308 566.3 307.6 568.567C306.8 573.367 302.933 584.434 300.533 589.5C299.467 591.367 298.667 594.3 298.667 595.9C298.667 597.5 297.867 600.434 296.8 602.3C294.667 606.167 291.2 616.567 289.333 623.9C287.333 632.167 282.933 644.3 277.467 656.034C275.867 659.367 274.667 663.1 274.667 664.167C274.667 665.234 273.733 667.234 272.667 668.7C271.6 670.034 270.667 672.167 270.667 673.234C270.667 674.3 269.733 676.967 268.667 679.1C266.533 683.234 267.2 685.767 270.133 684.7C271.2 684.3 278.267 682.967 285.6 681.9C293.067 680.834 299.733 679.367 300.533 678.567C301.2 677.9 301.6 672.967 301.467 667.634C301.333 661.1 302 656.7 303.333 654.034C304.4 652.034 305.333 648.967 305.333 647.367C305.333 645.767 306.533 642.3 308 639.5C309.467 636.834 310.667 633.1 310.667 631.367C310.667 629.367 312.267 626.834 314.8 624.7C318.133 621.767 320.267 621.234 327.067 621.234C331.6 621.1 344.267 620.034 355.067 618.834C365.867 617.5 375.2 616.834 375.733 617.234C376.4 617.634 378.133 620.567 379.6 623.9C385.6 636.967 387.2 643.367 387.467 655.234C387.867 669.767 386.267 668.967 411.867 666.034C421.867 664.834 435.6 663.634 442.4 663.367C449.333 663.1 455.2 662.434 455.6 662.034C456.533 661.1 452.667 652.967 449.067 648.034C447.733 646.3 446.667 643.634 446.667 642.034C446.667 640.434 445.733 637.9 444.667 636.434C443.6 635.1 442.667 632.167 442.667 630.167C442.667 628.034 441.867 624.7 440.8 622.834C438.667 618.967 435.2 608.567 433.333 601.234C432.667 598.7 431.333 594.167 430.133 591.234C429.067 588.3 428.133 584.7 428 583.234C428 581.767 427.067 579.367 426 578.034C424.933 576.567 424 574.034 424 572.3C424 570.567 423.2 567.5 422.133 565.5C421.067 563.5 419.867 559.367 419.333 556.567C418.8 553.634 417.6 549.9 416.533 548.3C415.467 546.7 414.667 543.9 414.667 542.3C414.667 540.567 413.467 536.967 412 534.167C410.533 531.5 409.333 527.634 409.333 525.634C409.333 523.5 408.4 520.7 407.333 519.367C406.267 517.9 405.333 515.234 405.333 513.367C405.2 511.5 404.133 507.5 402.667 504.567C401.2 501.634 400 497.767 400 495.9C400 494.034 399.067 490.834 398 488.7C396.933 486.7 396 483.5 396 481.767C396 479.9 395.2 478.167 394.267 477.767C393.333 477.5 379.2 476.967 362.8 476.834C339.333 476.567 332.8 476.967 332.267 478.3ZM350.133 531.5C350.533 533.634 351.6 537.367 352.667 539.9C356.267 549.367 358.933 558.034 359.6 562.567C360 565.1 361.067 568.167 362 569.234C362.933 570.3 364.267 574.567 365.067 578.567C366.267 584.567 366.133 586.167 364.667 587.367C362 589.367 327.867 590.967 326.133 589.234C325.067 588.167 325.333 586.567 327.067 583.767C328.267 581.5 329.333 578.034 329.333 576.034C329.333 574.167 330.133 571.234 331.2 569.767C332.267 568.3 333.6 564.7 334 561.767C334.533 558.967 335.6 555.767 336.4 554.834C337.067 553.9 338.133 550.967 338.667 548.167C339.6 543.634 341.067 539.234 344.133 530.834C345.733 526.7 349.067 527.1 350.133 531.5Z" fill="#DC2626"/>
<path d="M648.933 476.967C646.133 477.5 646.133 478.567 648.667 488.3C650.267 494.7 650.667 508.433 650.667 569.5C650.667 634.833 650.4 643.767 648.4 650.167C645.333 659.9 646.4 660.7 663.733 661.9C678.8 662.967 679.333 662.567 675.333 655.1C673.6 651.767 673.333 641.233 673.333 586.3C673.333 550.7 673.733 520.567 674.133 519.367C675.733 515.233 679.6 516.967 680.667 522.033C681.467 526.833 683.867 532.967 687.467 540.3C688.533 542.433 689.333 544.833 689.333 545.633C689.333 546.567 690.533 549.5 692 552.3C693.467 554.967 694.667 558.3 694.667 559.5C694.667 560.833 695.867 563.633 697.333 565.9C698.8 568.033 700 571.1 700 572.567C700 574.033 700.933 576.433 702 577.767C703.067 579.233 704 581.5 704 582.833C704 584.167 705.2 587.5 706.667 590.167C708.133 592.967 709.333 596.433 709.333 598.033C709.333 599.633 710.267 601.633 711.333 602.567C712.4 603.5 713.333 605.233 713.333 606.433C713.333 608.7 717.867 621.1 720.8 626.833C721.867 628.7 722.667 631.1 722.667 632.167C722.667 633.1 723.867 636.167 725.333 638.967C726.8 641.633 728 644.967 728 646.433C728 647.767 728.933 649.633 730 650.567C731.067 651.5 732 653.767 732 655.767C732 657.633 733.067 660.967 734.4 663.233C736.8 667.1 737.467 667.367 750.133 668.7C771.067 671.1 789.467 673.367 796.667 674.567C800.267 675.1 803.733 675.367 804.267 674.967C804.933 674.7 805.333 635.1 805.333 587.233C805.333 515.767 805.733 498.967 807.2 494.3C810.4 484.833 811.2 477.233 809.067 477.1C807.467 477.1 783.2 477.1 781.067 477.233C779.333 477.233 779.867 482.033 782 486.033C783.733 489.367 784 500.167 784 557.9C784 596.3 783.467 626.7 782.8 627.767C780.8 630.833 777.333 627.1 777.333 622.033C777.333 619.633 776.4 616.567 775.333 615.1C774.267 613.767 773.333 611.367 773.333 609.9C773.333 608.433 772.133 605.367 770.667 603.233C769.2 600.967 768 597.767 768 595.9C768 594.033 767.2 591.367 766.133 589.9C765.2 588.433 763.867 585.1 763.333 582.567C762.8 580.033 761.6 576.567 760.533 574.967C759.467 573.367 758.667 570.833 758.667 569.233C758.667 567.767 757.467 564.3 756 561.633C754.533 558.833 753.333 555.367 753.333 553.9C753.333 552.433 752.4 550.033 751.333 548.7C750.267 547.233 749.333 545.1 749.333 543.9C749.333 542.833 748.133 539.633 746.667 536.833C745.2 534.167 744 530.433 744 528.7C744 526.967 743.067 524.833 742 523.9C740.933 522.967 740 520.833 740 519.1C740 517.367 738.8 514.033 737.333 511.633C735.867 509.233 734.667 506.3 734.667 505.233C734.667 503.233 730.133 490.567 727.6 485.9C726.933 484.433 725.867 481.9 725.467 480.167L724.533 476.967L687.867 476.833C667.733 476.7 650.133 476.7 648.933 476.967Z" fill="#DC2626"/>
<path d="M889.333 476.967C887.333 477.767 887.733 481.367 890.267 484.167C892.267 486.434 892.267 487.234 890.8 490.967C889.867 493.367 888.667 497.5 888 500.167C887.467 502.967 886.4 505.9 885.733 506.834C884.933 507.767 883.867 511.1 883.333 514.167C882.933 517.1 881.6 520.7 880.667 522.167C879.6 523.5 878.667 526.034 878.667 527.9C878.667 529.767 877.867 532.434 876.8 533.9C875.867 535.367 874.533 538.567 874 540.967C873.467 543.367 872.267 546.967 871.2 548.967C870.133 550.967 869.333 553.9 869.333 555.634C869.333 557.234 868.133 560.967 866.667 563.9C865.2 566.834 864 570.167 864 571.5C864 572.834 863.067 575.1 862 576.434C860.933 577.9 860 580.567 860 582.3C860 584.034 859.067 587.1 858 588.967C855.733 592.967 852.533 601.9 850.4 609.9C849.6 612.834 848.133 616.434 847.067 617.9C846.133 619.367 845.333 622.034 845.333 624.034C845.333 626.034 844.4 628.3 843.333 629.234C842.267 630.167 841.333 632.167 841.333 633.634C841.333 635.1 840.133 639.1 838.533 642.434C836.933 645.767 834.933 650.3 834 652.567C828.133 665.767 825.067 671.9 823.867 672.567C823.2 673.1 822.667 674.434 822.667 675.767C822.667 677.5 824 678.434 827.733 679.1C849.467 682.7 855.467 683.5 856.8 682.434C857.6 681.767 858 678.034 857.6 673.367C857.2 667.5 857.733 663.5 859.733 658.3C863.6 647.9 865.467 642.434 866.667 637.367C868.8 629.1 869.733 628.7 886.8 631.234C895.2 632.567 908 634.3 915.333 635.234C922.8 636.034 930 637.5 931.467 638.3C933.067 639.1 934.8 642.167 935.733 645.5C936.533 648.7 937.867 653.9 938.667 657.234C939.467 660.567 940.933 664.967 941.733 667.234C942.533 669.367 943.333 677.767 943.467 685.9L943.6 700.567L948.8 701.634C951.733 702.3 960 704.3 967.333 706.167C974.667 708.034 983.067 710.034 986 710.567C990.933 711.5 1004 714.834 1009.6 716.7C1012.67 717.634 1012.8 713.5 1010 709.767C1008.93 708.434 1008 706.034 1008 704.434C1008 702.967 1007.07 700.567 1006 699.1C1004.93 697.767 1004 695.1 1004 693.234C1004 691.367 1002.8 686.434 1001.33 682.167C999.867 678.034 998.667 672.834 998.667 670.567C998.667 668.3 997.867 664.834 996.8 662.834C995.867 660.834 994.667 655.9 994.133 651.767C993.733 647.634 992.4 642.567 991.333 640.434C990.267 638.3 989.333 634.434 989.333 631.767C989.333 629.234 988.4 625.9 987.333 624.434C986.267 623.1 985.333 619.634 985.333 616.967C985.333 614.167 984.133 608.834 982.667 604.967C981.2 601.1 980 596.3 980 594.3C980 592.3 978.8 587.634 977.333 583.9C975.867 580.167 974.667 575.234 974.667 572.834C974.667 570.434 974 567.767 973.067 566.834C972.133 565.9 971.067 562.034 970.533 558.3C970.133 554.434 969.067 549.367 968.267 547.234C966.133 541.1 962.667 526.7 961.333 519.1C960.8 515.367 959.733 511.1 958.933 509.767C958.267 508.3 957.2 504.567 956.667 501.234C956.133 497.9 954.8 493.634 953.867 491.634C952.8 489.634 952 486.3 952 484.3C952 482.3 951.467 479.9 950.933 478.967C950.267 477.9 941.467 477.234 920.267 476.967C904 476.7 890 476.7 889.333 476.967ZM906.667 539.767C906.8 541.634 907.867 545.634 909.333 548.567C910.8 551.5 911.867 555.634 912 557.634C912 559.634 912.8 562.967 913.867 564.967C914.8 566.967 916 571.234 916.533 574.434C917.067 577.634 918.267 581.9 919.333 584.034C920.4 586.034 921.333 590.7 921.333 594.434C921.333 602.434 919.867 603.234 909.333 601.234C905.467 600.567 899.2 599.9 895.467 599.9C882.533 599.9 879.6 597.367 883.2 589.1C885.867 582.967 889.333 572.3 890.533 566.3C891.2 563.5 892.267 560.567 892.933 559.634C893.733 558.7 894.667 556.034 895.067 553.9C895.733 549.634 900 537.767 901.867 534.834C903.467 532.167 906.667 535.367 906.667 539.767Z" fill="#DC2626"/>
<path d="M468 478.833C468 479.766 468.933 484.166 470 488.566C472.8 500.433 472.933 638.566 470 649.233C466.533 662.166 466.133 661.633 481.067 660.7C488.133 660.3 501.867 659.9 511.333 659.766C530.533 659.5 533.067 658.7 529.867 653.9C528.267 651.366 527.733 644.3 527.2 618.033C526.533 586.433 526.533 585.366 529.2 582.7C532.133 579.766 541.6 578.833 545.2 581.1C547.067 582.3 551.333 592.966 553.2 601.233C553.867 603.766 555.333 607.633 556.533 609.9C557.733 612.033 558.667 615.233 558.667 616.966C558.667 618.7 559.6 620.966 560.667 622.033C561.733 623.233 562.667 625.633 562.667 627.366C562.667 629.233 563.467 632.033 564.267 633.633C565.2 635.233 566.667 638.966 567.467 641.9C568.4 644.833 570 649.633 571.067 652.566L573.067 657.9L582.933 658.7C588.267 659.233 602.133 659.633 613.733 659.766C630.667 659.9 634.667 659.5 634.667 658.033C634.667 657.1 633.733 655.5 632.667 654.566C631.6 653.633 630.667 651.9 630.667 650.7C630.667 649.366 629.733 647.233 628.667 645.766C627.6 644.433 626.667 642.166 626.667 640.833C626.667 639.633 625.467 636.3 624 633.633C622.533 630.833 621.333 627.633 621.333 626.566C621.333 625.366 620.4 623.233 619.333 621.766C618.267 620.433 617.333 617.9 617.333 616.166C617.333 614.566 616.133 610.833 614.667 607.9C613.2 604.966 612 601.633 612 600.3C612 598.966 611.2 596.566 610.133 595.1C609.067 593.633 608 590.033 607.733 587.1C607.333 582.033 607.467 581.9 613.733 579.9C618.667 578.3 620.8 576.7 623.333 572.566C626.533 567.233 626.533 566.833 626.667 534.433C626.667 507.766 626.267 501.233 624.667 499.1C623.6 497.766 622.667 495.9 622.667 494.966C622.667 494.166 621.067 490.966 619.067 487.9C612.267 477.633 614.667 477.9 537.067 477.5C481.333 477.233 468 477.5 468 478.833ZM566 507.233L571.333 509.9L571.733 528.166L572.133 546.566L567.733 549.233C564 551.5 560.933 551.9 546.4 551.9C531.6 551.9 529.333 551.633 528.133 549.5C527.467 548.3 526.8 538.966 526.8 528.7C526.533 503.1 526.133 503.5 545.733 504.166C557.333 504.433 561.867 505.1 566 507.233Z" fill="#DC2626"/>
<path d="M284 695.633C274.133 695.767 265.467 696.567 264.8 697.233C262.8 699.233 265.6 701.367 271.467 702.033C274.267 702.433 277.067 703.367 277.6 704.3C278.133 705.233 278.667 718.567 278.667 734.033V762.3L283.867 762.833C286.8 763.1 289.867 763.1 290.533 762.833C291.467 762.567 292 752.567 292 733.233C292 701.233 292.133 700.833 300.133 701.5C303.867 701.9 304.8 701.367 305.067 699.1C305.333 697.5 304.667 696.033 303.733 695.767C302.8 695.5 293.867 695.367 284 695.633Z" fill="#DC2626"/>
<path d="M415.333 695.767L411.333 696.567L410.533 725.234C410.133 740.967 409.733 754.034 409.6 754.167C407.867 755.634 399.067 757.234 396.133 756.567C389.067 755.1 388.667 753.767 388 724.034L387.333 696.567H381.333H375.333L374.933 724.967L374.667 753.5L379.2 758.034L383.733 762.567H399.333H414.933L419.467 758.034L424 753.5V725.634C424 699.234 423.333 694.034 420.133 694.7C419.6 694.834 417.6 695.234 415.333 695.767Z" fill="#DC2626"/>
<path d="M317.333 729.1V762.567H323.333H329.333V750.167C329.333 737.1 330.267 734.567 335.467 734.567C339.067 734.567 345.333 742.434 345.333 747.1C345.333 748.967 345.867 750.834 346.667 751.234C347.333 751.634 348.533 754.434 349.333 757.234C350.8 762.434 350.933 762.567 356.667 762.567C361.733 762.567 362.667 762.167 362.667 760.034C362.667 758.567 361.733 756.567 360.667 755.367C359.6 754.3 358.667 752.3 358.667 750.967C358.667 749.634 357.467 746.3 356 743.5C354.533 740.834 353.333 738.3 353.333 737.9C353.333 737.5 355.467 734.834 358 732.034L362.8 726.834L362.4 714.434C362 702.7 361.867 702.034 358.267 699.367C354.933 696.834 352.267 696.567 335.867 696.167L317.333 695.634V729.1ZM342.8 702.567C349.067 704.3 351.333 709.367 350.133 718.3C349.067 726.167 347.2 728.034 339.467 728.834C330.533 729.9 329.333 728.3 329.333 715.767C329.333 701.634 331.6 699.5 342.8 702.567Z" fill="#DC2626"/>
<path d="M445.333 698.3L440.667 700.567L440.267 728.834L440 756.967L443.467 759.767C446.533 762.167 448.8 762.567 460.933 762.567C476.133 762.567 479.067 761.634 481.867 756.034C485.867 748.3 476.267 746.434 468.267 753.367C464.533 756.7 462.8 757.367 459.6 756.7C452.133 755.234 452 754.967 452 729.367C452 716.434 452.533 705.234 453.067 704.434C453.6 703.634 456 702.434 458.4 701.9C463.2 700.967 469.333 703.767 469.333 707.234C469.333 712.967 480 715.5 482.8 710.434C484.8 706.567 480.8 699.1 475.467 697.234C468.933 694.967 450.667 695.634 445.333 698.3Z" fill="#DC2626"/>
<path d="M497.333 701.5C497.2 710.034 497.2 758.967 497.2 760.834C497.333 762.034 499.467 762.567 503.2 762.567C506.667 762.567 509.333 761.9 509.6 760.834C510.667 757.9 510 699.234 508.933 697.5C508.267 696.7 505.467 695.9 502.533 695.9H497.333V701.5Z" fill="#DC2626"/>
<path d="M529.067 698.167C526.933 700.7 520 714.967 520 716.834C520 717.5 518.533 720.167 516.667 722.7C512.933 727.634 513.067 731.767 517.2 736.567C518.4 738.034 520.933 742.167 522.8 745.9C524.533 749.5 526.4 752.834 527.067 752.967C527.6 753.234 528.933 755.5 530 758.034C531.733 762.3 532.267 762.567 537.867 762.567C544.667 762.567 545.2 761.767 541.333 756.967C539.867 755.1 538.133 752.167 537.333 750.434C536.667 748.7 534.533 744.834 532.667 741.9C528.533 735.234 526.667 730.967 526.667 728.3C526.667 726.034 530.133 717.767 534.533 709.234C535.867 706.7 537.467 702.567 538 700.167C538.8 696.167 538.667 695.9 534.933 695.9C532.8 695.9 530.133 696.967 529.067 698.167Z" fill="#DC2626"/>
<path d="M558 698.967C557.467 700.7 557.333 715.5 557.6 732.033L558 761.9L563.467 762.3C567.2 762.567 569.2 762.167 569.467 760.967C569.733 760.033 569.867 744.967 569.6 727.5L569.2 695.9H564C559.6 695.9 558.533 696.433 558 698.967Z" fill="#DC2626"/>
<path d="M586.667 729.234V762.567H592.667H598.667V742.567C598.667 730.167 599.2 722.567 600 722.567C600.8 722.567 601.733 722.434 602.267 722.434C603.467 722.167 606.133 726.434 613.2 740.434C617.2 747.9 618.667 752.567 618.667 756.7V762.567H624.667H630.667V729.1V695.767L625.067 696.167L619.333 696.567L618.667 710.567C618.133 722.567 617.6 724.567 615.6 724.967C614 725.367 613.067 724.3 612.533 721.367C612 719.1 610.8 716.567 609.867 715.767C608.8 714.967 608 713.367 608 712.3C608 711.234 606.8 708.834 605.333 706.967C603.867 705.1 602.667 702.434 602.667 701.1C602.667 697.9 598.667 695.9 592.133 695.9H586.667V729.234Z" fill="#DC2626"/>
<path d="M653.333 698.167C650.133 699.9 648.4 701.767 647.867 704.567C646.667 709.767 646.533 751.634 647.467 755.634C649.067 761.234 654.267 762.567 673.867 762.567C684.4 762.567 692 762.034 692.267 761.234C693.467 757.767 691.733 732.034 690.267 731.634C689.333 731.234 684.8 731.367 680.133 731.767C670.133 732.7 668.267 734.967 675.2 737.9C679.867 739.9 680 740.167 680 747.234C680 755.767 677.467 758.034 669.067 756.834C659.867 755.634 659.867 755.634 660.267 728.7L660.667 704.567L664.533 702.7C670.533 699.9 678.267 702.7 679.733 708.3C680.8 712.167 681.333 712.567 686.133 712.567C691.333 712.567 691.333 712.567 691.333 707.367C691.333 699.1 687.067 696.834 670.933 696.167C660.4 695.767 657.067 696.167 653.333 698.167Z" fill="#DC2626"/>
<path d="M732.667 698.833C732.267 700.567 732.133 715.367 732.267 731.9L732.667 761.9H738.533H744.533L744.267 734.567C744.133 719.5 744 704.7 744 701.5V695.9H738.667C734.267 695.9 733.2 696.433 732.667 698.833Z" fill="#DC2626"/>
<path d="M762 698.834C761.6 700.567 761.466 715.367 761.6 731.9L762 761.9H768.666H775.333L775.466 744.167C775.466 734.034 776.133 725.9 776.933 725.1C778.933 723.1 783.066 727.5 786.8 735.9C788.533 739.9 790.8 744.034 791.6 744.967C792.533 745.9 793.333 748.3 793.466 750.3C793.866 762.434 793.6 761.9 799.2 762.3C802 762.567 804.8 762.167 805.2 761.5C805.6 760.7 805.733 745.9 805.333 728.3L804.666 696.567L799.733 696.167C793.866 695.634 793.466 696.434 793.066 712.567C792.666 722.034 792.4 723.234 790.133 723.234C788.4 723.234 787.2 721.9 786.533 719.634C786 717.634 783.333 711.5 780.533 705.9L775.466 695.9H769.066C763.6 695.9 762.666 696.3 762 698.834Z" fill="#DC2626"/>
<path d="M830.667 697.367C822.667 700.567 822.667 700.7 822.667 729.367V755.634L826.8 759.1C830.667 762.3 831.733 762.567 845.067 762.567C858 762.434 859.733 762.167 863.067 759.367C868.667 754.834 867.733 750.034 861.2 749.5C857.333 749.234 856 749.767 854.267 752.3C853.067 754.167 850.533 756.034 848.667 756.434C843.467 757.767 836.133 754.967 835.333 751.5C834.933 749.9 834.8 738.967 834.933 727.367L835.333 706.167L838.933 703.5C842 701.234 843.467 700.967 847.6 702.034C851.733 702.967 852.933 704.034 854.133 707.9C855.6 712.167 856.133 712.567 860.8 712.567C865.2 712.567 866 712.167 866.4 709.367C867.867 699.634 861.867 695.9 845.067 696.034C839.067 696.034 832.533 696.7 830.667 697.367Z" fill="#DC2626"/>
<path d="M892.933 724.833C891.333 726.433 892 739.5 893.733 740.967C894.533 741.633 905.2 743.233 917.2 744.433C929.333 745.767 939.6 746.967 940.133 747.367C940.667 747.633 946.133 748.567 952.267 749.233C958.4 750.033 967.6 751.5 972.667 752.567C977.867 753.633 988.933 755.633 997.333 757.233C1005.73 758.833 1016.8 760.967 1021.87 762.033C1026.8 763.1 1031.87 763.633 1033.2 763.233C1035.2 762.7 1042.67 751.767 1042.67 749.367C1042.67 746.833 1010.67 740.167 966 733.367C956.533 731.9 944.133 730.033 938.667 729.233C930.533 728.033 897.467 724.033 894.533 723.9C894.133 723.9 893.333 724.3 892.933 724.833Z" fill="white"/>
<path d="M476.667 789.367C397.2 791.9 275.733 799.367 222.667 805.1C215.733 805.9 204 806.967 196.667 807.367C186.267 808.033 184.133 808.567 186.667 809.5C190.4 810.833 211.733 810.433 252.667 808.167C288.133 806.167 325.733 804.3 364 802.567C380.533 801.9 407.2 800.567 423.333 799.9C534.133 794.7 595.467 794.7 700 799.9C782.8 804.033 836.933 806.7 860 808.033C905.2 810.3 932.533 810.967 936 809.5C938.667 808.567 936.267 808.033 924.667 807.367C916.667 806.967 902.267 805.633 892.667 804.567C873.2 802.433 869.333 802.033 830.667 799.233C693.067 789.233 581.067 786.167 476.667 789.367Z" fill="white"/>
<path d="M402.267 815.367C400.8 816.833 401.2 819.5 403.067 821.5C404 822.433 405.733 824.7 406.933 826.567C408.133 828.433 412.133 834.033 415.867 839.233C419.467 844.3 427.467 855.767 433.467 864.567C439.6 873.367 448.4 885.9 453.2 892.567C458.133 899.1 465.467 909.633 469.733 915.9C474 922.167 481.6 932.833 486.4 939.5C491.333 946.3 498.667 956.7 502.667 962.567C506.667 968.567 512.133 976.3 514.667 979.9C522.4 990.833 529.733 1001.23 540 1015.77L549.6 1029.5L554.533 1028.7C557.2 1028.3 564 1027.9 569.6 1027.9C581.467 1027.9 581.333 1027.9 591.867 1012.57C595.333 1007.37 600.533 999.9 603.333 995.9C606.133 991.9 612.8 982.3 618 974.567C623.2 966.833 629.6 957.5 632.133 953.9C634.8 950.167 639.6 943.367 642.933 938.567C658.4 916.167 662.133 910.833 666.533 904.567C669.067 900.833 673.467 894.567 676.267 890.567C678.933 886.567 687.467 874.167 695.2 863.233C702.8 852.167 711.067 840.3 713.6 836.833C716 833.233 720 827.633 722.4 824.3C729.067 815.233 728.267 814.567 708.8 814.567H692.267L688.133 819.767C685.867 822.567 684 825.5 684 826.3C684 826.967 683.067 828.3 682 829.233C680.933 830.167 674.933 838.433 668.667 847.767C657.6 864.3 653.2 870.567 641.067 887.9C637.733 892.7 628.133 906.7 619.733 919.233C611.333 931.633 600.533 947.633 595.6 954.567C590.8 961.5 582.4 973.633 577.2 981.5C568.933 993.633 564.667 998.567 563.333 996.967C563.2 996.7 559.6 991.5 555.333 985.233C551.067 978.967 545.467 970.833 542.8 967.233C540.267 963.5 535.067 956.033 531.333 950.567C527.6 945.1 522.133 937.233 519.333 933.233C516.4 929.233 509.733 919.367 504.267 911.367C498.933 903.5 493.867 896.3 493.2 895.367C492.533 894.567 488.4 888.833 484.133 882.567C480 876.3 472.933 866.167 468.667 859.9C460.667 848.3 459.067 846.167 445.6 826.567L437.867 815.233L420.533 814.833C410.933 814.7 402.8 814.967 402.267 815.367Z" fill="white"/>
</svg>
